<svg id="Capa_1" enable-background="new 0 0 512 512" height="512" viewBox="0 0 512 512" width="512" xmlns="http://www.w3.org/2000/svg"><g id="Line_cutting_stoke_Expand"><g><path d="m480 478c0 1.105-.895 2-2 2h-222v16h222c9.936-.012 17.988-8.064 18-18v-286h-16z"/><path d="m478 16h-292c-9.936.012-17.988 8.064-18 18v142h16v-142c0-1.105.895-2 2-2h292c1.105 0 2 .895 2 2v142h16v-142c-.012-9.936-8.064-17.988-18-18z"/><path d="m450.343 210.343-50.343 50.344-18.343-18.344-11.314 11.314 24 24c3.124 3.124 8.189 3.124 11.314 0l56-56z"/><path d="m344 304c0 4.418 3.582 8 8 8h80v-16h-72v-72h56v-16h-64c-4.418 0-8 3.582-8 8z"/><path d="m381.657 378.343-11.314 11.314 24 24c3.124 3.124 8.189 3.124 11.314 0l56-56-11.314-11.314-50.343 50.344z"/><path d="m344 440c0 4.418 3.582 8 8 8h80v-16h-72v-72h56v-16h-64c-4.418 0-8 3.582-8 8z"/><path d="m450.343 66.343-50.343 50.344-18.343-18.344-11.314 11.314 24 24c3.124 3.124 8.189 3.124 11.314 0l56-56z"/><path d="m344 72v88c0 4.418 3.582 8 8 8h80v-16h-72v-72h56v-16h-64c-4.418 0-8 3.582-8 8z"/><path d="m237.657 98.343-11.314 11.314 24 24c3.124 3.124 8.189 3.124 11.314 0l56-56-11.314-11.314-50.343 50.344z"/><path d="m200 72v88c0 4.418 3.582 8 8 8h80v-16h-72v-72h56v-16h-64c-4.418 0-8 3.582-8 8z"/><path d="m320 344c0-83.813-68.187-152-152-152s-152 68.187-152 152h16c0-74.99 61.009-136 136-136s136 61.01 136 136-61.009 136-136 136c-69.228-.09-127.378-52.094-135.166-120.883l-15.9 1.766c8.69 76.891 73.686 135.025 151.066 135.117 83.813 0 152-68.187 152-152z"/><path d="m160 356.155-37 29.6 10 12.494 40-32c1.897-1.519 3.001-3.818 3-6.249v-80h-16z"/><path d="m176 240.305c7.36.56 14.638 1.907 21.711 4.017l4.578-15.332c-63.617-19.043-130.627 17.091-149.67 80.708s17.091 130.627 80.708 149.67 130.627-17.091 149.67-80.708c17.015-56.839-9.974-117.592-63.557-143.07l-6.88 14.445c8.318 3.964 16.07 9.022 23.05 15.038l-11.041 11.041 11.313 11.315 11.018-11.014c14.339 16.751 23.015 37.606 24.787 59.585h-15.687v16h15.7c-1.684 22.007-10.356 42.9-24.75 59.632l-11.063-11.064-11.313 11.315 11.062 11.063c-16.732 14.396-37.627 23.069-59.636 24.754v-15.7h-16v15.7c-22.006-1.684-42.899-10.356-59.631-24.749l11.062-11.063-11.313-11.315-11.063 11.059c-14.394-16.732-23.066-37.625-24.75-59.632h15.695v-16h-15.695c1.684-22.007 10.356-42.9 24.75-59.632l11.063 11.064 11.313-11.315-11.062-11.063c16.732-14.393 37.625-23.065 59.631-24.749v15.695h16z"/></g></g></svg>