<svg height="512" viewBox="0 0 74 74" width="512" xmlns="http://www.w3.org/2000/svg"><g id="Numbers"><text fill="rgb(0,0,0)" font-family="ArialMT, Arial" font-size="18" transform="translate(37.995 -390.544)">8<tspan x="-5.005" y="124">18</tspan><tspan x="-5.005" y="248">28</tspan><tspan x="-5.005" y="372">38</tspan><tspan x="-5.005" y="496">48</tspan><tspan x="-5.005" y="620">58</tspan><tspan x="-5.005" y="744">68</tspan><tspan x="-5.005" y="868">78</tspan><tspan x="-5.005" y="992">88</tspan><tspan x="-5.005" y="1116">98</tspan><tspan x="-10.011" y="1240">108</tspan><tspan letter-spacing="-.074em" x="-9.343" y="1364">1</tspan><tspan x="-.668" y="1364">18</tspan><tspan x="-10.011" y="1488">128</tspan><tspan x="-10.011" y="1612">138</tspan><tspan x="-10.011" y="1736">148</tspan><tspan x="-10.011" y="1860">158</tspan><tspan x="-10.011" y="1984">168</tspan><tspan x="-10.011" y="2108">178</tspan><tspan x="-10.011" y="2232">188</tspan><tspan x="-10.011" y="2356">198</tspan><tspan x="-10.011" y="2480">208</tspan><tspan x="-10.011" y="2604">218</tspan><tspan x="-10.011" y="2728">228</tspan><tspan x="-10.011" y="2852">238</tspan><tspan x="-10.011" y="2976">248</tspan><tspan x="-10.011" y="3100">258</tspan><tspan x="-10.011" y="3224">268</tspan><tspan x="-10.011" y="3348">278</tspan><tspan x="-10.011" y="3472">288</tspan><tspan x="-10.011" y="3596">298</tspan></text></g><g id="Icons"><path d="m71 58h-68a1 1 0 0 1 -1-1v-40a1 1 0 0 1 1-1h68a1 1 0 0 1 1 1v40a1 1 0 0 1 -1 1zm-67-2h66v-38h-66z"/><path d="m61 52h-48a1 1 0 0 1 -1-1 3 3 0 0 0 -3-3 1 1 0 0 1 -1-1v-20a1 1 0 0 1 1-1 3 3 0 0 0 3-3 1 1 0 0 1 1-1h48a1 1 0 0 1 1 1 3 3 0 0 0 3 3 1 1 0 0 1 1 1v20a1 1 0 0 1 -1 1 3 3 0 0 0 -3 3 1 1 0 0 1 -1 1zm-47.1-2h46.2a5.015 5.015 0 0 1 3.9-3.9v-18.2a5.015 5.015 0 0 1 -3.9-3.9h-46.2a5.015 5.015 0 0 1 -3.9 3.9v18.2a5.015 5.015 0 0 1 3.9 3.9z"/><path d="m57 41a4 4 0 1 1 4-4 4 4 0 0 1 -4 4zm0-6a2 2 0 1 0 2 2 2 2 0 0 0 -2-2z"/><path d="m17 41a4 4 0 1 1 4-4 4 4 0 0 1 -4 4zm0-6a2 2 0 1 0 2 2 2 2 0 0 0 -2-2z"/><path d="m37 46a5.006 5.006 0 0 1 -5-5h2a3 3 0 0 0 6 0c0-.955-.374-2.164-3.289-3.042-3.894-1.174-4.711-3.344-4.711-4.958a5 5 0 0 1 10 0h-2a3 3 0 0 0 -6 0c0 .507 0 2.051 3.289 3.042 3.126.943 4.711 2.611 4.711 4.958a5.006 5.006 0 0 1 -5 5z"/><path d="m36 26h2v3h-2z"/><path d="m36 45h2v3h-2z"/></g></svg>