<svg id="Capa_1" enable-background="new 0 0 511.99 511.99" height="512" viewBox="0 0 511.99 511.99" width="512" xmlns="http://www.w3.org/2000/svg"><g><path d="m363.959 169.244 42.427-42.426c5.858-5.857 5.858-15.355 0-21.213-5.856-5.857-15.354-5.858-21.213 0l-42.427 42.426c-5.858 5.857-5.858 15.355 0 21.213s15.355 5.858 21.213 0z"/><path d="m89.247 189.399c-31.615 31.615-48.775 73.652-48.318 118.367l.246 24.051c.06 5.82 3.479 11.08 8.775 13.495 5.295 2.415 11.51 1.548 15.942-2.222 29.07-24.728 48.562-36.638 59.644-41.831-3.515 10.484-11.151 29.438-27.714 62.89-15.937 32.187-32.158 61.67-32.319 61.965-3.223 5.849-2.19 13.123 2.531 17.845 4.722 4.721 11.996 5.752 17.845 2.531.293-.162 29.697-16.341 61.879-32.278 33.506-16.593 52.482-24.239 62.976-27.756-5.193 11.081-17.104 30.573-41.831 59.644-3.771 4.433-4.637 10.647-2.222 15.943s7.675 8.716 13.494 8.775c26.962.273 24.344.255 25.791.255 44.063-.001 85.422-17.123 116.626-48.328 40.559-40.558 55.907-97.405 44.83-150.484 28.443-5.135 60.938-18.923 91.997-49.982 47.865-47.864 54.74-99.144 52.08-133.733-2.87-37.311-17.147-63.379-17.754-64.471-1.36-2.449-3.379-4.467-5.827-5.828-1.092-.606-27.16-14.883-64.471-17.753-34.592-2.664-85.87 4.215-133.733 52.079-31.059 31.059-44.855 63.554-49.99 91.996-53.113-11.082-109.948 4.301-150.477 44.83zm212.131 212.132c-24.221 24.22-55.911 38.071-89.883 39.43 9.204-12.23 16.701-23.526 22.134-33.396 5.105-9.273 18.665-33.906 4.109-48.46-9.038-9.039-23.541-6.103-44.01 1.56-13.246 4.958-30.677 12.693-51.807 22.989-9.342 4.551-18.615 9.22-27.218 13.633 4.413-8.603 9.082-17.876 13.633-27.218 29.937-61.438 36.22-84.145 24.549-95.816-14.556-14.556-39.188-.995-48.46 4.109-9.87 5.433-21.166 12.93-33.396 22.135 1.36-33.969 15.211-65.665 39.43-89.884 33.488-33.487 81.175-46.747 126.689-35.893.208 28.824 8.777 59.029 18.24 76.057 1.36 2.449 3.379 4.467 5.827 5.828 17.258 9.586 47.421 18.023 76.056 18.233 10.857 45.514-2.403 93.204-35.893 126.693zm-31.454-200.215c18.416 7.37 33.367 22.318 40.742 40.732-14.46-2.883-25.476-7.291-30.982-9.783-2.504-5.489-6.89-16.425-9.76-30.949zm209.285-127.783c-18.417-7.37-33.368-22.318-40.743-40.732 14.46 2.883 25.476 7.292 30.983 9.783 2.504 5.49 6.89 16.426 9.76 30.949zm-168.283.252c28.024-28.024 60.021-42.687 95.264-43.73 4.341 18.111 13.757 34.976 27.263 48.482 13.509 13.509 30.379 22.927 48.494 27.266-1.036 35.239-15.706 67.226-43.742 95.262-26.778 26.778-58.449 42.639-95.264 43.73-4.341-18.111-13.757-34.976-27.263-48.482-13.509-13.509-30.378-22.926-48.493-27.266 1.101-37.403 17.492-69.013 43.741-95.262z"/><path d="m4.394 401.531c-5.858 5.858-5.858 15.355 0 21.213 5.857 5.858 15.355 5.859 21.213 0l21.213-21.213c5.858-5.858 5.858-15.355 0-21.213-5.857-5.858-15.355-5.858-21.213 0z"/><path d="m110.459 507.597 21.214-21.213c5.858-5.858 5.858-15.355 0-21.213-5.856-5.857-15.354-5.858-21.213 0l-21.214 21.213c-5.858 5.858-5.858 15.355 0 21.213 5.857 5.858 15.355 5.858 21.213 0z"/><path d="m25.607 507.597 21.213-21.213c5.858-5.858 5.858-15.355 0-21.213-5.857-5.857-15.355-5.858-21.213 0l-21.213 21.213c-5.858 5.858-5.858 15.355 0 21.213 5.857 5.857 15.355 5.858 21.213 0z"/></g></svg>