<svg height="512" viewBox="0 0 64 64" width="512" xmlns="http://www.w3.org/2000/svg"><g id="money-coin-connection-business-finance"><path d="m46 29.163a3 3 0 0 1 -3-3 1 1 0 0 0 -1-1h-20a1 1 0 0 0 -1 1 3 3 0 0 1 -3 3 1 1 0 0 0 -1 1v4a1 1 0 0 0 1 1 3 3 0 0 1 3 3 1 1 0 0 0 1 1h20a1 1 0 0 0 1-1 3 3 0 0 1 3-3 1 1 0 0 0 1-1v-4a1 1 0 0 0 -1-1zm-1 4.1a5.013 5.013 0 0 0 -3.9 3.9h-18.2a5.013 5.013 0 0 0 -3.9-3.9v-2.2a5.013 5.013 0 0 0 3.9-3.9h18.2a5.013 5.013 0 0 0 3.9 3.9z"/><path d="m32 28.163a4 4 0 1 0 4 4 4 4 0 0 0 -4-4zm0 6a2 2 0 1 1 2-2 2 2 0 0 1 -2 2z"/><path d="m55 48a7.006 7.006 0 0 0 -6.92 6h-5.08v-10.837h7a1 1 0 0 0 1-1v-9.163h4a1 1 0 0 0 1-1v-16.08a7 7 0 1 0 -2 0v15.08h-3v-8.837a1 1 0 0 0 -1-1h-27v-12.163a1 1 0 0 0 -1-1h-6.08a7 7 0 1 0 0 2h5.08v11.163h-7a1 1 0 0 0 -1 1v8.837h-4a1 1 0 0 0 -1 1v16.08a7 7 0 1 0 2 0v-15.08h3v9.163a1 1 0 0 0 1 1h27v11.837a1 1 0 0 0 1 1h6.08a7 7 0 1 0 6.92-8zm-5-39a5 5 0 1 1 5 5 5.006 5.006 0 0 1 -5-5zm-41 5a5 5 0 1 1 5-5 5.006 5.006 0 0 1 -5 5zm5 41a5 5 0 1 1 -5-5 5.006 5.006 0 0 1 5 5zm1-22v-2-7.837h34v18h-34zm40 27a5 5 0 1 1 5-5 5.006 5.006 0 0 1 -5 5z"/></g></svg>